<svg width="602" height="383" viewBox="0 0 602 383" fill="none" xmlns="http://www.w3.org/2000/svg">
<rect width="602" height="383" fill="white"/>
<path d="M209 167C209 167 103 167 86 167C69 167 147 10 147 69C147 128 147 243 147 243M516 167H454M454 167C454 167 411 167 393 167C375 167 454 8 454 69C454 130 454 167 454 167ZM454 167V243M245 243C230 220 227 89 245 69C263 49 339 50 356 69C373 88 378 215 356 243C334 271 260 266 245 243Z" stroke="black" stroke-width="6"/>
<path d="M318 114C304 103 297 96 284 114C271 132 273 155 273 155C273 155 270 183 284 198C298 213 301 210 318 198C335 186 332 125 318 114Z" stroke="black" stroke-width="6"/>
<path d="M150.427 344.216C150.129 344.216 149.894 344.131 149.723 343.96C149.553 343.832 149.553 343.725 149.723 343.64C150.662 343.469 151.473 343.128 152.155 342.616C152.838 342.061 153.393 341.379 153.819 340.568C154.715 339.075 155.59 337.581 156.443 336.088C157.339 334.552 158.193 333.016 159.003 331.48C159.985 329.603 160.987 327.725 162.011 325.848C163.035 323.928 164.059 322.029 165.083 320.152C166.065 318.403 166.939 316.717 167.707 315.096C168.475 313.475 169.051 312.301 169.435 311.576C169.734 311.021 170.246 310.531 170.971 310.104C171.739 309.635 172.486 309.272 173.211 309.016C172.955 309.016 172.699 309.016 172.443 309.016C172.187 308.973 171.91 308.952 171.611 308.952C170.289 308.952 168.838 309.037 167.259 309.208C165.723 309.336 164.209 309.549 162.715 309.848C161.265 310.147 159.985 310.552 158.875 311.064C157.766 311.576 157.019 312.195 156.635 312.92C156.465 313.304 156.315 313.688 156.187 314.072C156.059 314.456 155.995 314.84 155.995 315.224C155.995 316.205 156.337 316.909 157.019 317.336C157.062 317.336 157.083 317.379 157.083 317.464C157.083 317.549 156.998 317.635 156.827 317.72C156.699 317.805 156.593 317.827 156.507 317.784C156.081 317.571 155.59 317.059 155.035 316.248C154.523 315.395 154.182 314.691 154.011 314.136C153.883 313.624 153.819 313.155 153.819 312.728C153.819 311.619 154.182 310.765 154.907 310.168C155.633 309.528 156.55 309.08 157.659 308.824C158.769 308.525 159.899 308.355 161.051 308.312C162.246 308.227 163.291 308.184 164.187 308.184C165.553 308.184 167.174 308.184 169.051 308.184C170.929 308.141 172.657 308.12 174.235 308.12C174.619 308.12 175.046 308.12 175.515 308.12C175.985 308.077 176.475 308.056 176.987 308.056C178.139 308.056 179.334 308.12 180.571 308.248C181.809 308.376 182.939 308.653 183.963 309.08C184.987 309.507 185.777 310.168 186.331 311.064C187.185 312.387 187.611 313.795 187.611 315.288C187.611 316.952 187.121 318.531 186.139 320.024C185.201 321.475 184.006 322.755 182.555 323.864C181.105 324.973 179.633 325.827 178.139 326.424C176.731 326.979 175.153 327.363 173.403 327.576C171.697 327.789 170.161 327.896 168.795 327.896C168.369 327.896 167.942 327.896 167.515 327.896C167.131 327.853 166.79 327.811 166.491 327.768C166.406 327.768 166.363 327.725 166.363 327.64C166.363 327.469 166.534 327.235 166.875 326.936C167.217 326.595 167.494 326.445 167.707 326.488C168.049 326.531 168.39 326.552 168.731 326.552C169.073 326.552 169.435 326.552 169.819 326.552C171.441 326.552 173.169 326.339 175.003 325.912C176.838 325.485 178.523 324.675 180.059 323.48C181.638 322.243 182.833 320.451 183.643 318.104C183.857 317.592 183.985 317.08 184.027 316.568C184.113 316.013 184.155 315.48 184.155 314.968C184.155 313.517 183.793 312.237 183.067 311.128C182.342 310.019 181.297 309.379 179.931 309.208C179.761 309.165 179.569 309.144 179.355 309.144C179.142 309.144 178.929 309.144 178.715 309.144C177.905 309.144 177.009 309.251 176.027 309.464C175.089 309.677 174.385 310.083 173.915 310.68C172.849 312.088 171.825 313.688 170.843 315.48C169.862 317.229 168.923 319.021 168.027 320.856C167.131 322.648 166.278 324.333 165.467 325.912C165.254 326.339 164.849 327.107 164.251 328.216C163.654 329.283 162.993 330.52 162.267 331.928C161.542 333.293 160.859 334.659 160.219 336.024C159.579 337.389 159.067 338.605 158.683 339.672C158.342 340.739 158.257 341.464 158.427 341.848C158.47 341.891 158.491 341.955 158.491 342.04C158.491 342.168 158.427 342.232 158.299 342.232C157.958 342.232 157.617 342.147 157.275 341.976C156.934 341.805 156.529 341.72 156.059 341.72C155.633 341.72 155.206 341.827 154.779 342.04C154.353 342.211 153.798 342.531 153.115 343C152.433 343.469 151.665 343.853 150.811 344.152C150.726 344.195 150.598 344.216 150.427 344.216ZM195.036 343.192C194.61 343.192 194.247 343.107 193.948 342.936C193.65 342.765 193.5 342.445 193.5 341.976C193.5 341.379 193.65 340.696 193.948 339.928C194.247 339.16 194.588 338.413 194.972 337.688C195.356 336.92 195.698 336.301 195.996 335.832C194.503 337.411 192.946 338.904 191.324 340.312C190.514 340.995 189.618 341.635 188.636 342.232C187.655 342.829 186.61 343.128 185.5 343.128C185.074 343.128 184.775 343 184.604 342.744C184.434 342.445 184.348 342.104 184.348 341.72C184.348 341.507 184.37 341.357 184.412 341.272C184.626 339.608 185.159 337.88 186.012 336.088C186.866 334.296 187.911 332.611 189.148 331.032C190.386 329.453 191.644 328.173 192.924 327.192C194.375 326.083 195.975 325.528 197.724 325.528H205.084C205.298 325.528 205.404 325.613 205.404 325.784C205.404 326.125 205.212 326.296 204.828 326.296C204.402 326.296 203.975 326.573 203.548 327.128C203.122 327.64 202.802 328.067 202.588 328.408C202.29 328.877 201.82 329.667 201.18 330.776C200.54 331.885 199.879 333.101 199.196 334.424C198.556 335.704 198.002 336.899 197.532 338.008C197.063 339.117 196.828 339.928 196.828 340.44C196.828 341.037 197.127 341.336 197.724 341.336C198.364 341.336 199.09 341.037 199.9 340.44C200.711 339.843 201.522 339.117 202.332 338.264C203.186 337.368 203.954 336.493 204.636 335.64C205.362 334.744 205.938 334.04 206.364 333.528C206.62 333.784 206.599 334.147 206.3 334.616C206.044 335.043 205.81 335.384 205.596 335.64C204.743 336.749 203.762 337.901 202.652 339.096C201.543 340.248 200.327 341.229 199.004 342.04C197.724 342.808 196.402 343.192 195.036 343.192ZM188.124 340.952C188.636 340.952 189.34 340.589 190.236 339.864C191.175 339.096 192.178 338.157 193.244 337.048C194.311 335.896 195.314 334.701 196.252 333.464C197.191 332.184 197.959 331.032 198.556 330.008C199.196 328.941 199.516 328.131 199.516 327.576C199.516 327.107 199.367 326.787 199.068 326.616C198.812 326.445 198.471 326.36 198.044 326.36C197.362 326.36 196.615 326.616 195.804 327.128C195.036 327.597 194.418 328.067 193.948 328.536C193.436 329.005 192.818 329.752 192.092 330.776C191.41 331.757 190.727 332.845 190.044 334.04C189.362 335.235 188.786 336.387 188.316 337.496C187.847 338.605 187.612 339.501 187.612 340.184C187.612 340.696 187.783 340.952 188.124 340.952ZM193.689 365.4C192.067 365.4 190.51 365.016 189.017 364.248C187.481 363.523 186.35 362.392 185.625 360.856C185.326 360.301 185.134 359.704 185.049 359.064C184.963 358.467 184.921 357.869 184.921 357.272V356.632C184.921 356.291 184.963 355.971 185.049 355.672C185.134 355.373 185.369 355.224 185.753 355.224C185.838 355.224 185.881 355.267 185.881 355.352C185.881 355.608 185.859 355.864 185.817 356.12C185.774 356.376 185.753 356.653 185.753 356.952C185.753 358.915 186.393 360.408 187.673 361.432C188.91 362.456 190.467 362.968 192.345 362.968C193.113 362.968 193.902 362.883 194.713 362.712C195.523 362.541 196.27 362.307 196.953 362.008C199.683 360.856 202.051 359.192 204.057 357.016C206.105 354.84 207.875 352.387 209.369 349.656C210.905 346.925 212.249 344.131 213.401 341.272C214.595 338.371 215.705 335.64 216.729 333.08C215.833 334.531 214.851 335.832 213.785 336.984C212.718 338.093 211.523 339.203 210.201 340.312C209.39 340.995 208.494 341.635 207.513 342.232C206.574 342.829 205.55 343.128 204.441 343.128C204.014 343.128 203.715 343 203.545 342.744C203.374 342.445 203.289 342.104 203.289 341.72V341.272C203.502 339.608 204.035 337.88 204.889 336.088C205.785 334.296 206.851 332.611 208.089 331.032C209.326 329.453 210.585 328.173 211.865 327.192C213.315 326.083 214.915 325.528 216.665 325.528H224.025C224.238 325.528 224.345 325.613 224.345 325.784C224.345 326.125 224.153 326.296 223.769 326.296C223.299 326.296 222.851 326.488 222.425 326.872C221.998 327.256 221.678 327.619 221.465 327.96C221.038 328.643 220.483 329.688 219.801 331.096C219.118 332.504 218.371 334.125 217.561 335.96C216.75 337.752 215.939 339.587 215.129 341.464C214.318 343.299 213.571 345.027 212.889 346.648C211.865 349.08 210.691 351.448 209.369 353.752C208.089 356.099 206.553 358.189 204.761 360.024C203.011 361.901 200.921 363.373 198.489 364.44C197.038 365.08 195.438 365.4 193.689 365.4ZM207.065 340.952C207.577 340.952 208.281 340.589 209.177 339.864C210.073 339.096 211.054 338.157 212.121 337.048C213.187 335.896 214.19 334.701 215.129 333.464C216.067 332.184 216.835 331.032 217.433 330.008C218.073 328.941 218.393 328.131 218.393 327.576C218.393 327.107 218.243 326.787 217.945 326.616C217.689 326.445 217.347 326.36 216.921 326.36C216.238 326.36 215.513 326.616 214.745 327.128C213.977 327.597 213.358 328.067 212.889 328.536C212.377 329.005 211.758 329.752 211.033 330.776C210.35 331.757 209.646 332.845 208.921 334.04C208.238 335.235 207.662 336.387 207.193 337.496C206.723 338.605 206.489 339.501 206.489 340.184C206.489 340.696 206.681 340.952 207.065 340.952ZM225.73 343.512C223.981 343.512 222.765 343.171 222.082 342.488C221.4 341.805 221.058 340.973 221.058 339.992C221.058 338.755 221.378 337.432 222.018 336.024C222.701 334.616 223.341 333.421 223.938 332.44C224.621 331.416 225.538 330.349 226.69 329.24C227.842 328.131 229.101 327.192 230.466 326.424C231.832 325.656 233.154 325.272 234.434 325.272C235.544 325.272 236.312 325.549 236.738 326.104C237.165 326.616 237.378 327.235 237.378 327.96C237.378 329.283 236.973 330.371 236.162 331.224C235.394 332.077 234.434 332.781 233.282 333.336C232.13 333.848 231.021 334.275 229.954 334.616C229.314 334.787 228.568 334.957 227.714 335.128C226.861 335.299 226.05 335.384 225.282 335.384C224.984 336.152 224.749 336.899 224.578 337.624C224.408 338.349 224.322 339.011 224.322 339.608C224.322 340.333 224.493 340.931 224.834 341.4C225.218 341.869 225.837 342.104 226.69 342.104C227.032 342.104 227.437 342.061 227.906 341.976C228.376 341.891 228.888 341.763 229.442 341.592C230.722 341.165 231.981 340.483 233.218 339.544C234.456 338.605 235.586 337.603 236.61 336.536C237.677 335.427 238.488 334.509 239.042 333.784C239.17 333.912 239.234 334.061 239.234 334.232C239.234 334.445 239.085 334.787 238.786 335.256C237.933 336.451 236.824 337.688 235.458 338.968C234.093 340.248 232.578 341.336 230.914 342.232C229.25 343.085 227.522 343.512 225.73 343.512ZM225.794 334.104C226.349 334.147 226.968 334.147 227.65 334.104C228.376 334.019 229.08 333.869 229.762 333.656C231.512 333.144 232.77 332.333 233.538 331.224C234.349 330.072 234.754 329.048 234.754 328.152C234.754 327.64 234.648 327.213 234.434 326.872C234.221 326.531 233.88 326.36 233.41 326.36C232.173 326.36 231.064 326.829 230.082 327.768C229.101 328.664 228.248 329.709 227.522 330.904C226.797 332.099 226.221 333.165 225.794 334.104ZM283.584 344.92C283.456 344.92 283.328 344.877 283.2 344.792C283.115 344.707 283.094 344.643 283.136 344.6C283.435 344.216 283.67 343.789 283.84 343.32C284.054 342.893 284.246 342.445 284.416 341.976C283.862 338.989 283.115 335.875 282.176 332.632C281.28 329.389 280.299 326.147 279.232 322.904C278.208 319.619 277.227 316.504 276.288 313.56C275.99 313.773 275.67 314.285 275.328 315.096C275.03 315.907 274.816 316.504 274.688 316.888C274.134 318.339 273.472 320.045 272.704 322.008C271.979 323.928 271.147 325.933 270.208 328.024C269.312 330.072 268.288 332.099 267.136 334.104C266.027 336.067 264.79 337.859 263.424 339.48C262.784 340.291 261.91 341.016 260.8 341.656C259.691 342.253 258.539 342.723 257.344 343.064C256.15 343.448 255.062 343.64 254.08 343.64C252.758 343.64 251.478 343.277 250.24 342.552C249.046 341.784 248.15 340.632 247.552 339.096C247.382 338.541 247.254 337.965 247.168 337.368C247.083 336.728 247.04 336.109 247.04 335.512C247.04 334.915 247.147 334.616 247.36 334.616C247.574 334.616 247.68 334.787 247.68 335.128C247.68 337.133 248.235 338.797 249.344 340.12C250.454 341.443 251.776 342.104 253.312 342.104C254.806 342.104 256.299 341.741 257.792 341.016C259.286 340.291 260.63 339.288 261.824 338.008C263.744 335.875 265.366 333.613 266.688 331.224C268.011 328.835 269.184 326.36 270.208 323.8C271.232 321.24 272.278 318.68 273.344 316.12C273.984 314.499 274.88 313.091 276.032 311.896C277.184 310.701 278.528 309.955 280.064 309.656H276.544C275.051 309.656 273.472 309.72 271.808 309.848C270.144 309.976 268.63 310.253 267.264 310.68C265.899 311.107 264.918 311.747 264.32 312.6C263.979 313.112 263.808 313.731 263.808 314.456C263.808 315.224 264 315.949 264.384 316.632C264.768 317.315 265.259 317.805 265.856 318.104C265.942 318.189 265.984 318.232 265.984 318.232C265.984 318.36 265.878 318.488 265.664 318.616C265.494 318.701 265.302 318.723 265.088 318.68C264.747 318.467 264.32 318.125 263.808 317.656C263.296 317.144 262.827 316.611 262.4 316.056C262.016 315.501 261.76 315.032 261.632 314.648C261.462 314.136 261.376 313.624 261.376 313.112C261.376 312.088 261.739 311.256 262.464 310.616C263.232 309.976 264.214 309.485 265.408 309.144C266.603 308.803 267.883 308.568 269.248 308.44C270.656 308.269 272 308.184 273.28 308.184C274.56 308.141 275.67 308.12 276.608 308.12H284.352C284.566 308.077 284.566 308.227 284.352 308.568C284.182 308.909 283.947 309.251 283.648 309.592C283.392 309.891 283.179 310.04 283.008 310.04C282.582 309.997 281.92 310.083 281.024 310.296C280.171 310.467 279.574 310.68 279.232 310.936C279.36 312.557 279.659 314.456 280.128 316.632C280.64 318.808 281.238 321.112 281.92 323.544C282.603 325.933 283.35 328.344 284.16 330.776C285.014 333.165 285.846 335.405 286.656 337.496C287.339 335.875 288.107 333.891 288.96 331.544C289.814 329.197 290.71 326.701 291.648 324.056C292.63 321.411 293.632 318.851 294.656 316.376C295.723 313.859 296.768 311.619 297.792 309.656C298.859 307.693 299.904 306.243 300.928 305.304C301.44 304.835 302.059 304.472 302.784 304.216C303.51 303.917 304.192 303.768 304.832 303.768C305.43 303.768 305.942 303.917 306.368 304.216C306.795 304.472 306.987 304.899 306.944 305.496L306.88 307.8C306.88 307.843 306.774 307.885 306.56 307.928C306.347 307.971 306.262 307.971 306.304 307.928C306.347 307.373 306.134 306.989 305.664 306.776C305.195 306.52 304.811 306.392 304.512 306.392C303.616 306.349 302.656 306.904 301.632 308.056C300.651 309.208 299.627 310.723 298.56 312.6C297.494 314.477 296.448 316.547 295.424 318.808C294.4 321.027 293.419 323.267 292.48 325.528C291.584 327.747 290.774 329.795 290.048 331.672C289.323 333.549 288.726 335.021 288.256 336.088C287.83 336.984 287.616 337.859 287.616 338.712C287.616 338.84 287.616 338.968 287.616 339.096C287.616 339.224 287.638 339.352 287.68 339.48C287.68 339.651 287.702 339.843 287.744 340.056C287.83 340.269 287.894 340.483 287.936 340.696C287.936 340.739 287.936 340.781 287.936 340.824C287.979 340.867 288 340.931 288 341.016C288 341.357 287.83 341.656 287.488 341.912C287.062 342.211 286.592 342.467 286.08 342.68C285.782 342.808 285.355 343.128 284.8 343.64C284.288 344.195 283.968 344.579 283.84 344.792C283.755 344.877 283.67 344.92 283.584 344.92ZM295.981 343.128C295.299 343.128 294.68 343 294.125 342.744C293.613 342.445 293.357 341.827 293.357 340.888C293.357 339.395 293.741 337.901 294.509 336.408C295.277 334.872 296.067 333.528 296.877 332.376C297.603 331.395 298.413 330.477 299.309 329.624C300.248 328.728 301.251 327.96 302.317 327.32C303 326.893 303.917 326.445 305.069 325.976C306.264 325.464 307.267 325.208 308.077 325.208C308.76 325.208 309.357 325.4 309.869 325.784C310.381 326.125 310.637 326.765 310.637 327.704C310.637 329.155 310.253 330.648 309.485 332.184C308.76 333.677 307.992 335 307.181 336.152C306.797 336.664 306.413 337.155 306.029 337.624C305.645 338.051 305.219 338.499 304.749 338.968C306.328 338.968 307.779 338.52 309.101 337.624C310.424 336.685 311.576 335.555 312.557 334.232L312.685 334.104C312.813 334.104 312.877 334.232 312.877 334.488C312.877 334.787 312.792 335.064 312.621 335.32C311.768 336.515 310.701 337.581 309.421 338.52C308.141 339.416 306.691 339.864 305.069 339.864C304.899 339.864 304.728 339.864 304.557 339.864C304.387 339.864 304.216 339.843 304.045 339.8C301.656 342.019 298.968 343.128 295.981 343.128ZM297.645 342.04C298.243 342.04 298.883 341.827 299.565 341.4C300.291 340.973 300.845 340.568 301.229 340.184C301.955 339.459 302.616 338.691 303.213 337.88C303.811 337.027 304.365 336.173 304.877 335.32C305.475 334.296 306.072 333.08 306.669 331.672C307.267 330.264 307.565 328.941 307.565 327.704C307.565 326.723 307.224 326.232 306.541 326.232C305.987 326.232 305.304 326.467 304.493 326.936C303.725 327.405 303.149 327.832 302.765 328.216C301.315 329.709 300.099 331.331 299.117 333.08C298.563 334.061 297.965 335.213 297.325 336.536C296.685 337.859 296.365 339.075 296.365 340.184C296.365 340.355 296.365 340.525 296.365 340.696C296.408 340.824 296.451 340.973 296.493 341.144C296.664 341.741 297.048 342.04 297.645 342.04ZM314.455 343.192C314.028 343.192 313.665 343.107 313.367 342.936C313.068 342.765 312.919 342.445 312.919 341.976C312.919 341.379 313.068 340.675 313.367 339.864C313.708 339.053 314.071 338.243 314.455 337.432C314.839 336.621 315.159 335.96 315.415 335.448C315.628 335.064 315.905 334.467 316.247 333.656C316.631 332.803 317.015 331.928 317.399 331.032C317.825 330.093 318.167 329.304 318.423 328.664C318.721 328.024 318.871 327.704 318.871 327.704C318.487 328.131 317.975 328.728 317.335 329.496C316.737 330.264 316.076 331.075 315.351 331.928C314.668 332.739 314.028 333.507 313.431 334.232C312.876 334.957 312.471 335.491 312.215 335.832C312.087 336.003 311.98 336.088 311.895 336.088C311.809 336.088 311.767 335.981 311.767 335.768C311.767 335.427 311.873 335.107 312.087 334.808C312.599 334.168 313.217 333.4 313.943 332.504C314.668 331.565 315.393 330.627 316.119 329.688C316.887 328.749 317.548 327.917 318.103 327.192C317.761 327.192 317.313 327.213 316.759 327.256C316.247 327.299 315.777 327.363 315.351 327.448C314.924 327.491 314.689 327.512 314.647 327.512C314.433 327.512 314.455 327.341 314.711 327C314.967 326.659 315.308 326.317 315.735 325.976C316.161 325.635 316.481 325.464 316.695 325.464C316.737 325.464 317.079 325.485 317.719 325.528C318.359 325.528 318.828 325.528 319.127 325.528C319.98 324.376 320.812 323.053 321.623 321.56C322.476 320.067 323.308 318.424 324.119 316.632C324.46 316.589 325.036 316.355 325.847 315.928C326.7 315.459 327.361 314.989 327.831 314.52C328.044 314.307 328.215 314.2 328.343 314.2C328.599 314.2 328.599 314.371 328.343 314.712C328.044 315.053 327.532 315.779 326.807 316.888C326.081 317.955 325.271 319.256 324.375 320.792C323.479 322.285 322.625 323.864 321.815 325.528H326.999C327.468 325.528 327.703 325.592 327.703 325.72C327.703 325.891 327.383 326.061 326.743 326.232C326.017 326.445 325.249 326.573 324.439 326.616C323.671 326.659 322.945 326.744 322.263 326.872C321.623 327 321.153 327.277 320.855 327.704C320.599 328.003 320.236 328.643 319.767 329.624C319.297 330.605 318.785 331.736 318.231 333.016C317.719 334.253 317.271 335.512 316.887 336.792C316.503 338.029 316.268 339.075 316.183 339.928V340.184C316.183 340.525 316.289 340.803 316.503 341.016C316.716 341.229 316.929 341.336 317.143 341.336C317.697 341.336 318.401 340.995 319.255 340.312C320.151 339.629 321.068 338.819 322.007 337.88C322.945 336.899 323.756 336.003 324.439 335.192C324.737 334.851 324.993 334.531 325.207 334.232C325.463 333.933 325.612 333.741 325.655 333.656C325.74 333.827 325.783 333.955 325.783 334.04C325.783 334.296 325.697 334.573 325.527 334.872C325.399 335.171 325.249 335.427 325.079 335.64C324.268 336.707 323.287 337.837 322.135 339.032C320.983 340.184 319.745 341.165 318.423 341.976C317.143 342.787 315.82 343.192 314.455 343.192ZM342.243 345.432C340.92 345.432 339.661 345.048 338.467 344.28C337.272 343.555 336.376 342.424 335.779 340.888C335.565 340.333 335.416 339.736 335.331 339.096C335.288 338.456 335.267 337.837 335.267 337.24V336.408C335.267 336.109 335.288 335.832 335.331 335.576C335.416 335.32 335.587 335.192 335.843 335.192C335.928 335.192 335.971 335.235 335.971 335.32C335.971 335.576 335.949 335.832 335.907 336.088C335.907 336.344 335.907 336.6 335.907 336.856C335.907 338.861 336.397 340.397 337.379 341.464C338.403 342.488 339.661 343 341.155 343C342.648 343 344.099 342.573 345.507 341.72C346.915 340.824 348.216 339.715 349.411 338.392C350.093 337.667 350.861 336.579 351.715 335.128C352.611 333.635 353.528 331.971 354.467 330.136C355.448 328.259 356.429 326.339 357.411 324.376C358.392 322.371 359.331 320.451 360.227 318.616C361.123 316.739 361.933 315.096 362.659 313.688C363.341 312.365 364.259 311.32 365.411 310.552C366.563 309.784 367.544 309.251 368.355 308.952C368.056 308.952 367.416 308.973 366.435 309.016C365.496 309.059 364.493 309.101 363.427 309.144C362.36 309.187 361.507 309.229 360.867 309.272C359.245 309.357 357.603 309.549 355.939 309.848C354.275 310.147 352.803 310.552 351.523 311.064C350.243 311.576 349.325 312.237 348.771 313.048C348.387 313.603 348.195 314.243 348.195 314.968C348.195 316.419 348.835 317.464 350.115 318.104C350.2 318.189 350.243 318.232 350.243 318.232C350.243 318.36 350.136 318.488 349.923 318.616C349.709 318.701 349.496 318.723 349.283 318.68C348.941 318.467 348.515 318.125 348.003 317.656C347.533 317.144 347.085 316.611 346.659 316.056C346.275 315.501 346.019 315.032 345.891 314.648C345.677 314.008 345.571 313.496 345.571 313.112C345.571 312.088 345.955 311.256 346.723 310.616C347.491 309.933 348.493 309.421 349.731 309.08C350.968 308.696 352.291 308.44 353.699 308.312C355.107 308.141 356.472 308.035 357.795 307.992C359.117 307.949 360.248 307.928 361.187 307.928C363.363 307.928 365.304 307.928 367.011 307.928C368.76 307.885 370.36 307.864 371.811 307.864C373.304 307.864 374.733 307.885 376.099 307.928C377.507 307.971 378.979 308.035 380.515 308.12C381.624 308.163 382.371 308.376 382.755 308.76C383.181 309.144 383.395 309.613 383.395 310.168C383.395 310.893 383.16 311.683 382.691 312.536C382.221 313.389 381.795 314.179 381.411 314.904C381.24 315.245 380.963 315.501 380.579 315.672C380.195 315.8 380.045 315.672 380.131 315.288C380.216 314.904 380.301 314.499 380.387 314.072C380.472 313.603 380.515 313.155 380.515 312.728C380.515 311.96 380.365 311.277 380.067 310.68C379.768 310.04 379.256 309.592 378.531 309.336C378.104 309.165 377.592 309.059 376.995 309.016C376.397 308.931 375.757 308.888 375.075 308.888C373.795 308.888 372.515 309.016 371.235 309.272C369.955 309.528 368.952 309.933 368.227 310.488C367.331 311.171 366.413 312.28 365.475 313.816C364.579 315.352 363.725 316.995 362.915 318.744C362.104 320.493 361.379 322.029 360.739 323.352C360.696 323.437 360.675 323.565 360.675 323.736C360.675 323.949 360.867 324.056 361.251 324.056C361.848 324.056 362.68 324.056 363.747 324.056C364.856 324.056 366.008 324.077 367.203 324.12C368.397 324.12 369.421 324.12 370.275 324.12C371.213 324.12 371.96 324.184 372.515 324.312C373.069 324.397 373.347 324.675 373.347 325.144C373.347 325.315 373.24 325.656 373.027 326.168C372.728 326.851 372.387 327.448 372.003 327.96C371.661 328.429 371.384 328.92 371.171 329.432C371.128 329.603 370.936 329.752 370.595 329.88C370.253 330.008 370.125 329.987 370.211 329.816C370.381 329.432 370.552 328.963 370.723 328.408C370.936 327.811 371.043 327.299 371.043 326.872C371.043 326.189 370.744 325.848 370.147 325.848H360.163C359.779 325.848 359.48 326.019 359.267 326.36C358.029 328.835 356.685 331.48 355.235 334.296C353.827 337.112 352.184 339.523 350.307 341.528C349.24 342.68 348.003 343.619 346.595 344.344C345.187 345.069 343.736 345.432 342.243 345.432ZM373.669 343.128C372.986 343.128 372.367 343 371.813 342.744C371.301 342.445 371.045 341.827 371.045 340.888C371.045 339.395 371.429 337.901 372.197 336.408C372.965 334.872 373.754 333.528 374.565 332.376C375.29 331.395 376.101 330.477 376.997 329.624C377.935 328.728 378.938 327.96 380.005 327.32C380.687 326.893 381.605 326.445 382.757 325.976C383.951 325.464 384.954 325.208 385.765 325.208C386.447 325.208 387.045 325.4 387.557 325.784C388.069 326.125 388.325 326.765 388.325 327.704C388.325 329.155 387.941 330.648 387.173 332.184C386.447 333.677 385.679 335 384.869 336.152C384.485 336.664 384.101 337.155 383.717 337.624C383.333 338.051 382.906 338.499 382.437 338.968C384.015 338.968 385.466 338.52 386.789 337.624C388.111 336.685 389.263 335.555 390.245 334.232L390.373 334.104C390.501 334.104 390.565 334.232 390.565 334.488C390.565 334.787 390.479 335.064 390.309 335.32C389.455 336.515 388.389 337.581 387.109 338.52C385.829 339.416 384.378 339.864 382.757 339.864C382.586 339.864 382.415 339.864 382.245 339.864C382.074 339.864 381.903 339.843 381.733 339.8C379.343 342.019 376.655 343.128 373.669 343.128ZM375.333 342.04C375.93 342.04 376.57 341.827 377.253 341.4C377.978 340.973 378.533 340.568 378.917 340.184C379.642 339.459 380.303 338.691 380.901 337.88C381.498 337.027 382.053 336.173 382.565 335.32C383.162 334.296 383.759 333.08 384.357 331.672C384.954 330.264 385.253 328.941 385.253 327.704C385.253 326.723 384.911 326.232 384.229 326.232C383.674 326.232 382.991 326.467 382.181 326.936C381.413 327.405 380.837 327.832 380.453 328.216C379.002 329.709 377.786 331.331 376.805 333.08C376.25 334.061 375.653 335.213 375.013 336.536C374.373 337.859 374.053 339.075 374.053 340.184C374.053 340.355 374.053 340.525 374.053 340.696C374.095 340.824 374.138 340.973 374.181 341.144C374.351 341.741 374.735 342.04 375.333 342.04ZM393.166 343.192C392.74 343.192 392.377 343.107 392.078 342.936C391.78 342.765 391.63 342.445 391.63 341.976C391.63 341.379 391.78 340.675 392.078 339.864C392.42 339.053 392.782 338.243 393.166 337.432C393.55 336.621 393.87 335.96 394.126 335.448C394.638 334.467 395.129 333.485 395.598 332.504C396.068 331.523 396.473 330.691 396.814 330.008C397.156 329.368 397.326 328.941 397.326 328.728C397.326 328.387 397.07 328.387 396.558 328.728C396.089 329.069 395.641 329.411 395.214 329.752C394.276 330.648 393.294 331.715 392.27 332.952C391.246 334.147 390.457 335.107 389.902 335.832C389.774 336.003 389.668 336.088 389.582 336.088C389.497 336.088 389.454 335.981 389.454 335.768C389.454 335.427 389.561 335.107 389.774 334.808C390.372 333.955 391.076 333.016 391.886 331.992C392.697 330.968 393.529 329.987 394.382 329.048C395.193 328.195 396.025 327.363 396.878 326.552C397.732 325.741 398.82 325.336 400.142 325.336C401.038 325.336 401.486 325.677 401.486 326.36C401.486 326.957 401.23 327.64 400.718 328.408C400.42 328.877 399.95 329.667 399.31 330.776C398.67 331.885 398.009 333.101 397.326 334.424C396.686 335.704 396.132 336.899 395.662 338.008C395.193 339.117 394.958 339.928 394.958 340.44C394.958 341.037 395.257 341.336 395.854 341.336C396.324 341.336 396.9 341.101 397.582 340.632C398.265 340.12 398.969 339.523 399.694 338.84C401.017 337.56 402.212 336.173 403.278 334.68C404.388 333.144 405.326 331.672 406.094 330.264C406.905 328.856 407.545 327.704 408.014 326.808C408.1 326.637 408.185 326.445 408.27 326.232C408.398 325.976 408.59 325.827 408.846 325.784C409.102 325.741 409.657 325.72 410.51 325.72C411.364 325.72 412.153 325.549 412.878 325.208H413.006C413.134 325.208 413.198 325.272 413.198 325.4C413.198 325.741 412.921 325.997 412.366 326.168C411.854 326.339 411.257 326.851 410.574 327.704C409.934 328.557 409.294 329.603 408.654 330.84C408.014 332.035 407.438 333.272 406.926 334.552C406.414 335.832 406.03 337.005 405.774 338.072C405.518 339.139 405.454 339.928 405.582 340.44C405.753 341.037 406.052 341.336 406.478 341.336C407.033 341.336 407.801 340.995 408.782 340.312C409.806 339.629 410.852 338.819 411.918 337.88C412.985 336.899 413.86 336.003 414.542 335.192C414.841 334.851 415.118 334.509 415.374 334.168C415.63 333.827 415.801 333.613 415.886 333.528C415.929 333.571 415.972 333.656 416.014 333.784C416.057 333.869 416.078 333.955 416.078 334.04C416.036 334.339 415.929 334.637 415.758 334.936C415.588 335.192 415.396 335.427 415.182 335.64C414.372 336.707 413.39 337.837 412.238 339.032C411.129 340.184 409.913 341.165 408.59 341.976C407.31 342.787 405.988 343.192 404.622 343.192C404.196 343.192 403.705 343.085 403.15 342.872C402.638 342.659 402.382 342.189 402.382 341.464C402.382 340.909 402.532 340.163 402.83 339.224C403.129 338.243 403.449 337.283 403.79 336.344C404.174 335.363 404.494 334.637 404.75 334.168C404.196 334.979 403.513 335.896 402.702 336.92C401.934 337.901 401.145 338.776 400.334 339.544C399.268 340.568 398.116 341.443 396.878 342.168C395.684 342.851 394.446 343.192 393.166 343.192ZM415.091 343.96C414.921 343.96 414.921 343.768 415.091 343.384C415.305 343 415.497 342.573 415.667 342.104C415.881 341.635 416.094 341.123 416.307 340.568C416.734 339.544 417.203 338.392 417.715 337.112C418.227 335.832 418.718 334.595 419.187 333.4C419.657 332.163 420.062 331.117 420.403 330.264C420.787 329.368 421.043 328.792 421.171 328.536C420.574 329.176 419.849 329.987 418.995 330.968C418.185 331.907 417.417 332.824 416.691 333.72C415.966 334.616 415.411 335.32 415.027 335.832C414.899 336.003 414.793 336.088 414.707 336.088C414.622 336.088 414.579 335.981 414.579 335.768C414.579 335.427 414.686 335.107 414.899 334.808C415.71 333.784 416.606 332.632 417.587 331.352C418.611 330.072 419.529 328.899 420.339 327.832C421.15 326.723 421.662 325.997 421.875 325.656C422.345 325.571 423.027 325.443 423.923 325.272C424.862 325.101 425.502 324.867 425.843 324.568C425.971 324.44 426.099 324.376 426.227 324.376C426.313 324.376 426.355 324.461 426.355 324.632C426.398 324.76 426.355 324.909 426.227 325.08C425.971 325.379 425.523 326.083 424.883 327.192C424.286 328.259 423.625 329.453 422.899 330.776C422.217 332.099 421.577 333.293 420.979 334.36C421.491 333.677 422.046 333.016 422.643 332.376C423.241 331.736 423.817 331.117 424.371 330.52C424.883 330.008 425.587 329.368 426.483 328.6C427.379 327.832 428.318 327.128 429.299 326.488C430.281 325.848 431.134 325.485 431.859 325.4C432.03 325.357 432.179 325.336 432.307 325.336C432.478 325.336 432.606 325.336 432.691 325.336C433.63 325.336 434.099 325.677 434.099 326.36C434.099 326.872 433.822 327.555 433.267 328.408C432.969 328.877 432.499 329.667 431.859 330.776C431.262 331.843 430.643 333.016 430.003 334.296C429.406 335.533 428.873 336.707 428.403 337.816C427.977 338.883 427.763 339.672 427.763 340.184C427.763 340.781 428.062 341.08 428.659 341.08C429.385 341.08 430.174 340.717 431.027 339.992C431.923 339.267 432.883 338.349 433.907 337.24C434.931 336.088 435.955 334.872 436.979 333.592C437.065 333.677 437.107 333.827 437.107 334.04C437.107 334.339 437.001 334.637 436.787 334.936C436.617 335.192 436.446 335.427 436.275 335.64C435.849 336.195 435.273 336.899 434.547 337.752C433.865 338.563 433.161 339.373 432.435 340.184C431.71 340.952 431.049 341.571 430.451 342.04C430.025 342.339 429.47 342.659 428.787 343C428.105 343.341 427.422 343.512 426.739 343.512C425.971 343.512 425.438 343.32 425.139 342.936C424.841 342.509 424.691 341.997 424.691 341.4C424.691 340.717 424.819 339.992 425.075 339.224C425.331 338.456 425.609 337.731 425.907 337.048C426.249 336.323 426.505 335.789 426.675 335.448C427.443 333.955 428.147 332.547 428.787 331.224C429.427 329.901 429.875 328.963 430.131 328.408C430.259 328.152 430.323 327.939 430.323 327.768C430.323 327.469 430.089 327.448 429.619 327.704C429.15 327.96 428.574 328.344 427.891 328.856C427.251 329.368 426.654 329.88 426.099 330.392C425.545 330.861 425.182 331.181 425.011 331.352C423.433 333.016 422.046 334.872 420.851 336.92C419.699 338.925 418.718 340.995 417.907 343.128C417.353 343.171 416.798 343.32 416.243 343.576C415.689 343.832 415.305 343.96 415.091 343.96ZM444.536 343.192C444.11 343.192 443.747 343.107 443.448 342.936C443.15 342.765 443 342.445 443 341.976C443 341.379 443.15 340.696 443.448 339.928C443.747 339.16 444.088 338.413 444.472 337.688C444.856 336.92 445.198 336.301 445.496 335.832C444.003 337.411 442.446 338.904 440.824 340.312C440.014 340.995 439.118 341.635 438.136 342.232C437.155 342.829 436.11 343.128 435 343.128C434.574 343.128 434.275 343 434.104 342.744C433.934 342.445 433.848 342.104 433.848 341.72C433.848 341.507 433.87 341.357 433.912 341.272C434.126 339.608 434.659 337.88 435.512 336.088C436.366 334.296 437.411 332.611 438.648 331.032C439.886 329.453 441.144 328.173 442.424 327.192C443.406 326.467 444.344 326.019 445.24 325.848C446.136 325.635 447.118 325.528 448.184 325.528H450.296C450.979 324.376 451.683 323.096 452.408 321.688C453.176 320.237 453.923 318.808 454.648 317.4C455.416 315.992 456.12 314.755 456.76 313.688C458.51 310.701 460.43 308.312 462.52 306.52C464.654 304.728 467.022 303.832 469.624 303.832C470.179 303.832 470.691 304.003 471.16 304.344C471.63 304.643 471.843 305.112 471.8 305.752L471.672 308.056C471.672 308.099 471.63 308.163 471.544 308.248C471.459 308.291 471.395 308.312 471.352 308.312C471.31 308.312 471.246 308.269 471.16 308.184C471.032 307.416 470.648 306.84 470.008 306.456C469.368 306.029 468.579 305.816 467.64 305.816C467.342 305.816 467 305.837 466.616 305.88C466.275 305.923 465.934 306.008 465.592 306.136C464.398 306.563 463.267 307.437 462.2 308.76C461.134 310.04 459.982 311.747 458.744 313.88C458.318 314.691 457.763 315.757 457.08 317.08C456.398 318.36 455.672 319.747 454.904 321.24C454.179 322.733 453.475 324.184 452.792 325.592C452.152 327 451.598 328.195 451.128 329.176C450.915 329.688 450.552 330.477 450.04 331.544C449.528 332.568 448.974 333.699 448.376 334.936C447.822 336.131 447.331 337.24 446.904 338.264C446.52 339.288 446.328 340.013 446.328 340.44C446.328 341.037 446.584 341.336 447.096 341.336C447.608 341.336 448.291 341.037 449.144 340.44C449.998 339.8 450.872 339.032 451.768 338.136C452.707 337.197 453.539 336.301 454.264 335.448C455.032 334.595 455.566 333.955 455.864 333.528C455.992 333.656 456.056 333.805 456.056 333.976C456.056 334.275 455.928 334.573 455.672 334.872C455.459 335.171 455.267 335.427 455.096 335.64C454.328 336.664 453.368 337.773 452.216 338.968C451.107 340.12 449.891 341.123 448.568 341.976C447.246 342.787 445.902 343.192 444.536 343.192ZM437.624 340.952C438.136 340.952 438.84 340.589 439.736 339.864C440.675 339.096 441.678 338.157 442.744 337.048C443.811 335.896 444.814 334.701 445.752 333.464C446.691 332.184 447.459 331.032 448.056 330.008C448.696 328.941 449.016 328.131 449.016 327.576C449.016 327.107 448.867 326.787 448.568 326.616C448.312 326.445 447.971 326.36 447.544 326.36C446.862 326.36 446.115 326.616 445.304 327.128C444.536 327.597 443.918 328.067 443.448 328.536C442.936 329.005 442.318 329.752 441.592 330.776C440.91 331.757 440.227 332.845 439.544 334.04C438.862 335.235 438.286 336.387 437.816 337.496C437.347 338.605 437.112 339.501 437.112 340.184C437.112 340.696 437.283 340.952 437.624 340.952Z" fill="url(#paint0_linear_10_2)"/>
<defs>
<linearGradient id="paint0_linear_10_2" x1="0" y1="337.5" x2="602" y2="337.5" gradientUnits="userSpaceOnUse">
<stop offset="0.375" stop-color="#002AFF"/>
<stop offset="0.575" stop-color="#0F8DE7"/>
</linearGradient>
</defs>
</svg>
